<svg xmlns="http://www.w3.org/2000/svg" width="37" height="46" viewBox="0 0 37 46" fill="none">
<path fill-rule="evenodd" clip-rule="evenodd" d="M7.5 0.515381H0V8.01538V36.7845H7.5V8.01538H29.5V29.2845H14.7783V36.7845H29.5H37V29.2845V8.01538V0.515381H29.5H7.5Z" fill="#43526B"/>
<rect x="13.4155" y="43.141" width="1.59069" height="1.58715" transform="rotate(90 13.4155 43.141)" fill="#009036"/>
<path fill-rule="evenodd" clip-rule="evenodd" d="M27.3071 38.6906H26.5576V45.6029H28.1483V40.2813L32.5528 40.2813V44.7317H29.6499V45.6029H32.5528H33.1077H34.1435V38.6906H33.3482H32.5528H28.1483H27.3071Z" fill="#009036"/>
<path fill-rule="evenodd" clip-rule="evenodd" d="M1.61071 38.6906H0.0200195V45.6029H1.012H1.61071H2.94872V44.7317H4.53941V38.6906H2.94872V44.7317H1.61071V38.6906ZM7.46793 38.6906H5.87724V44.7317H4.53964L4.53964 45.6029H5.87724H6.47635H7.46793V38.6906ZM8.80575 38.6906H9.60133H10.3964H14.7775H15.6424H16.3682V45.6029H14.7775V40.2813L10.3964 40.2813V45.6029H8.80575V38.6906ZM25.2919 43.2791V44.7317V45.6029H23.7012L19.2508 45.6029V44.7317L23.7012 44.7317V43.2791H19.2968L19.2508 43.2791L17.7061 43.2791V38.6906H19.2508H19.2968H25.2919V40.2813L19.2968 40.2813V41.6884L23.7012 41.6884H25.2919V43.2791ZM35.4093 38.6906H37V45.6029H35.4093V38.6906Z" fill="#43526B"/>
</svg>