<svg xmlns="http://www.w3.org/2000/svg" width="60" height="12" viewBox="0 0 60 12" fill="none">
  <rect x="21.7339" y="7.97902" width="2.58089" height="2.57515" transform="rotate(90 21.7339 7.97902)" fill="#009036"/>
  <path fill-rule="evenodd" clip-rule="evenodd" d="M44.273 0.758218H43.0571V11.9734H45.638V3.33911L52.7841 3.33911V10.5599H48.0749V11.9734L52.7841 11.9734H53.6853H55.365V0.758218H54.0747H52.7841H45.638H44.273Z" fill="#009036"/>
  <path fill-rule="evenodd" clip-rule="evenodd" d="M2.58089 0.758218H0V11.9734L1.60958 11.9734L2.58089 11.9734H4.7519V10.5599H7.33279V0.758218H4.7519V10.5599H2.58089V0.758218ZM12.0847 0.758218H9.5038V10.5599H7.33358V11.9734L9.5038 11.9734H10.4759H12.0847V0.758218ZM14.2547 0.758218H15.5458H16.8356H23.9439H25.3475H26.5248V11.9734H23.9439V3.33911L16.8356 3.33911V11.9734H14.2547V0.758218ZM41.0039 5.62213H41.0036H38.4227L31.2762 5.62213V3.33911L41.0039 3.33911V0.758218H31.2762H31.2022H28.6953V8.20303L31.2022 8.20303L31.2762 8.20303H38.4227V10.5599H31.2022V11.9734L38.4227 11.9734H41.0036H41.0039V10.5599H41.0036V8.20303H41.0039V5.62213ZM57.4191 0.758218H60V11.9734H57.4191V0.758218Z" fill="#43526B"/>
</svg>