<?xml version="1.0" encoding="UTF-8" standalone="no"?>
<svg
   width="60"
   height="12"
   viewBox="0 0 60 12"
   fill="none"
   version="1.1"
   id="svg2"
   sodipodi:docname="logo-name-coplac.svg"
   inkscape:version="1.3.2 (091e20e, 2023-11-25, custom)"
   xmlns:inkscape="http://www.inkscape.org/namespaces/inkscape"
   xmlns:sodipodi="http://sodipodi.sourceforge.net/DTD/sodipodi-0.dtd"
   xmlns="http://www.w3.org/2000/svg"
   xmlns:svg="http://www.w3.org/2000/svg">
  <defs
     id="defs2" />
  <sodipodi:namedview
     id="namedview2"
     pagecolor="#ffffff"
     bordercolor="#000000"
     borderopacity="0.25"
     inkscape:showpageshadow="2"
     inkscape:pageopacity="0.0"
     inkscape:pagecheckerboard="0"
     inkscape:deskcolor="#d1d1d1"
     inkscape:zoom="22.766667"
     inkscape:cx="30"
     inkscape:cy="5.9956076"
     inkscape:window-width="1920"
     inkscape:window-height="1009"
     inkscape:window-x="-8"
     inkscape:window-y="-8"
     inkscape:window-maximized="1"
     inkscape:current-layer="svg2" />
  <rect
     x="21.7339"
     y="7.97902"
     width="2.58089"
     height="2.57515"
     transform="rotate(90 21.7339 7.97902)"
     fill="#009036"
     id="rect1" />
  <path
     fill-rule="evenodd"
     clip-rule="evenodd"
     d="M44.273 0.758218H43.0571V11.9734H45.638V3.33911L52.7841 3.33911V10.5599H48.0749V11.9734L52.7841 11.9734H53.6853H55.365V0.758218H54.0747H52.7841H45.638H44.273Z"
     fill="#009036"
     id="path1" />
  <path
     fill-rule="evenodd"
     clip-rule="evenodd"
     d="M2.58089 0.758218H0V11.9734L1.60958 11.9734L2.58089 11.9734H4.7519V10.5599H7.33279V0.758218H4.7519V10.5599H2.58089V0.758218ZM12.0847 0.758218H9.5038V10.5599H7.33358V11.9734L9.5038 11.9734H10.4759H12.0847V0.758218ZM14.2547 0.758218H15.5458H16.8356H23.9439H25.3475H26.5248V11.9734H23.9439V3.33911L16.8356 3.33911V11.9734H14.2547V0.758218ZM41.0039 5.62213H41.0036H38.4227L31.2762 5.62213V3.33911L41.0039 3.33911V0.758218H31.2762H31.2022H28.6953V8.20303L31.2022 8.20303L31.2762 8.20303H38.4227V10.5599H31.2022V11.9734L38.4227 11.9734H41.0036H41.0039V10.5599H41.0036V8.20303H41.0039V5.62213ZM57.4191 0.758218H60V11.9734H57.4191V0.758218Z"
     fill="#43526B"
     id="path2" />
  <path
     style="fill:#ff0000;stroke-width:0.0439239"
     d="M 19.194729,9.2679356 V 7.9941435 h 1.25183 1.25183 v 1.2737921 1.2737924 h -1.25183 -1.25183 z"
     id="path3" />
  <path
     style="fill:#ff0000;stroke-width:0.0439239"
     d="M 43.089312,6.3689605 V 0.79062958 h 6.127379 6.127379 V 6.3689605 11.947291 h -3.623719 -3.623718 v -0.68082 -0.680819 h 2.349926 2.349927 V 6.9619327 3.3382138 h -3.579795 -3.579795 v 4.3045388 4.3045384 h -1.273792 -1.273792 z"
     id="path4" />
</svg>
