<svg width="16" height="16" viewBox="0 0 16 16" fill="none" xmlns="http://www.w3.org/2000/svg">
<path d="M8 1C6.15042 1.02231 4.38287 1.76698 3.07493 3.07493C1.76698 4.38287 1.02231 6.15042 1 8C1.02231 9.84958 1.76698 11.6171 3.07493 12.9251C4.38287 14.233 6.15042 14.9777 8 15C9.84958 14.9777 11.6171 14.233 12.9251 12.9251C14.233 11.6171 14.9777 9.84958 15 8C14.9777 6.15042 14.233 4.38287 12.9251 3.07493C11.6171 1.76698 9.84958 1.02231 8 1ZM12 8.5H8.5V12H7.5V8.5H4V7.5H7.5V4H8.5V7.5H12V8.5Z" fill="#43526B"/>
</svg>
