<svg width="20" height="21" viewBox="0 0 20 21" fill="none" xmlns="http://www.w3.org/2000/svg">
<path d="M10 2.16663C11.8786 2.16663 13.6803 2.9129 15.0087 4.24129C16.3371 5.56967 17.0834 7.37134 17.0834 9.24996C17.0834 14.6666 12.5 19.25 10 19.25C7.50002 19.25 2.91669 14.6666 2.91669 9.24996C2.91669 7.37134 3.66296 5.56967 4.99135 4.24129C6.31973 2.9129 8.1214 2.16663 10 2.16663ZM14.5834 10.5C14.0575 10.4999 13.5375 10.6105 13.0572 10.8245C12.5768 11.0385 12.1469 11.3512 11.7952 11.7421C11.4435 12.1331 11.178 12.5936 11.0159 13.0939C10.8538 13.5941 10.7987 14.1229 10.8542 14.6458C11.4104 14.7048 11.9727 14.6387 12.5 14.4523C13.0274 14.2659 13.5063 13.9639 13.9018 13.5684C14.2973 13.1729 14.5993 12.694 14.7857 12.1666C14.9721 11.6393 15.0382 11.077 14.9792 10.5208C14.8477 10.507 14.7156 10.5 14.5834 10.5ZM5.41669 10.5C5.28335 10.5 5.15085 10.5066 5.02085 10.5208C4.9618 11.077 5.0279 11.6393 5.21432 12.1666C5.40074 12.694 5.70275 13.1729 6.09824 13.5684C6.49373 13.9639 6.97268 14.2659 7.5 14.4523C8.02733 14.6387 8.58967 14.7048 9.14585 14.6458C9.20136 14.1229 9.14627 13.5941 8.98415 13.0939C8.82204 12.5936 8.55652 12.1331 8.20485 11.7421C7.85318 11.3512 7.42321 11.0385 6.94287 10.8245C6.46253 10.6105 5.94254 10.4999 5.41669 10.5Z" fill="white"/>
</svg>
