<svg width="20" height="21" viewBox="0 0 20 21" fill="none" xmlns="http://www.w3.org/2000/svg">
<g clip-path="url(#clip0_1_221)">
<path d="M7.5 3H4.16667C3.72464 3 3.30072 3.17559 2.98816 3.48816C2.67559 3.80072 2.5 4.22464 2.5 4.66667V8C2.5 8.44203 2.67559 8.86595 2.98816 9.17851C3.30072 9.49107 3.72464 9.66667 4.16667 9.66667H7.5C7.94203 9.66667 8.36595 9.49107 8.67851 9.17851C8.99107 8.86595 9.16667 8.44203 9.16667 8V4.66667C9.16667 4.22464 8.99107 3.80072 8.67851 3.48816C8.36595 3.17559 7.94203 3 7.5 3ZM7.5 11.3333H4.16667C3.72464 11.3333 3.30072 11.5089 2.98816 11.8215C2.67559 12.134 2.5 12.558 2.5 13V16.3333C2.5 16.7754 2.67559 17.1993 2.98816 17.5118C3.30072 17.8244 3.72464 18 4.16667 18H7.5C7.94203 18 8.36595 17.8244 8.67851 17.5118C8.99107 17.1993 9.16667 16.7754 9.16667 16.3333V13C9.16667 12.558 8.99107 12.134 8.67851 11.8215C8.36595 11.5089 7.94203 11.3333 7.5 11.3333ZM15.8333 11.3333H12.5C12.058 11.3333 11.634 11.5089 11.3215 11.8215C11.0089 12.134 10.8333 12.558 10.8333 13V16.3333C10.8333 16.7754 11.0089 17.1993 11.3215 17.5118C11.634 17.8244 12.058 18 12.5 18H15.8333C16.2754 18 16.6993 17.8244 17.0118 17.5118C17.3244 17.1993 17.5 16.7754 17.5 16.3333V13C17.5 12.558 17.3244 12.134 17.0118 11.8215C16.6993 11.5089 16.2754 11.3333 15.8333 11.3333ZM14.1667 3C14.3708 3.00003 14.5678 3.07496 14.7203 3.2106C14.8728 3.34623 14.9703 3.53312 14.9942 3.73583L15 3.83333V5.5H16.6667C16.8791 5.50024 17.0834 5.58157 17.2378 5.72737C17.3923 5.87318 17.4852 6.07246 17.4976 6.2845C17.5101 6.49653 17.4411 6.70532 17.3048 6.86819C17.1685 7.03107 16.9751 7.13575 16.7642 7.16083L16.6667 7.16667H15V8.83333C14.9998 9.04573 14.9184 9.25003 14.7726 9.40447C14.6268 9.55892 14.4275 9.65186 14.2155 9.66431C14.0035 9.67676 13.7947 9.60777 13.6318 9.47145C13.4689 9.33512 13.3643 9.14175 13.3392 8.93083L13.3333 8.83333V7.16667H11.6667C11.4543 7.16643 11.25 7.0851 11.0955 6.93929C10.9411 6.79349 10.8481 6.59421 10.8357 6.38217C10.8232 6.17014 10.8922 5.96135 11.0286 5.79847C11.1649 5.6356 11.3583 5.53092 11.5692 5.50583L11.6667 5.5H13.3333V3.83333C13.3333 3.61232 13.4211 3.40036 13.5774 3.24408C13.7337 3.0878 13.9457 3 14.1667 3Z" fill="white"/>
</g>
<defs>
<clipPath id="clip0_1_221">
<rect width="20" height="20" fill="white" transform="translate(0 0.5)"/>
</clipPath>
</defs>
</svg>
