<svg width="20" height="21" viewBox="0 0 20 21" fill="none" xmlns="http://www.w3.org/2000/svg">
<path d="M10 2.16663C14.6025 2.16663 18.3334 5.89746 18.3334 10.5C18.3334 15.1025 14.6025 18.8333 10 18.8333C8.65188 18.8351 7.3236 18.5084 6.13003 17.8816L2.55503 18.8125C2.43557 18.8436 2.31006 18.8429 2.19094 18.8106C2.07181 18.7783 1.9632 18.7153 1.87587 18.6281C1.78855 18.5409 1.72554 18.4323 1.69308 18.3132C1.66063 18.1941 1.65987 18.0686 1.69086 17.9491L2.62086 14.375C1.99236 13.1801 1.66484 11.85 1.66669 10.5C1.66669 5.89746 5.39753 2.16663 10 2.16663ZM11.0434 11.3333H7.29169L7.20669 11.3391C7.0571 11.3597 6.92002 11.4338 6.82079 11.5476C6.72156 11.6614 6.66689 11.8073 6.66689 11.9583C6.66689 12.1093 6.72156 12.2552 6.82079 12.369C6.92002 12.4828 7.0571 12.5569 7.20669 12.5775L7.29169 12.5833H11.0434L11.1275 12.5775C11.2771 12.5569 11.4142 12.4828 11.5134 12.369C11.6127 12.2552 11.6673 12.1093 11.6673 11.9583C11.6673 11.8073 11.6127 11.6614 11.5134 11.5476C11.4142 11.4338 11.2771 11.3597 11.1275 11.3391L11.0434 11.3333ZM12.7084 8.41663H7.29169L7.20669 8.42246C7.0571 8.44304 6.92002 8.51709 6.82079 8.63091C6.72156 8.74473 6.66689 8.89062 6.66689 9.04163C6.66689 9.19263 6.72156 9.33853 6.82079 9.45234C6.92002 9.56616 7.0571 9.64021 7.20669 9.66079L7.29169 9.66663H12.7084L12.7934 9.66079C12.943 9.64021 13.08 9.56616 13.1793 9.45234C13.2785 9.33853 13.3332 9.19263 13.3332 9.04163C13.3332 8.89062 13.2785 8.74473 13.1793 8.63091C13.08 8.51709 12.943 8.44304 12.7934 8.42246L12.7084 8.41663Z" fill="white"/>
</svg>
