<svg width="25" height="24" viewBox="0 0 25 24" fill="none" xmlns="http://www.w3.org/2000/svg">
<path d="M20.9 17.4C20.9 18.1956 20.5839 18.9587 20.0213 19.5213C19.4587 20.0839 18.6957 20.4 17.9 20.4H7.10001C6.30436 20.4 5.54129 20.0839 4.97869 19.5213C4.41608 18.9587 4.10001 18.1956 4.10001 17.4V6.59998C4.10001 5.80433 4.41608 5.04126 4.97869 4.47866C5.54129 3.91605 6.30436 3.59998 7.10001 3.59998H17.9C18.6957 3.59998 19.4587 3.91605 20.0213 4.47866C20.5839 5.04126 20.9 5.80433 20.9 6.59998V17.4ZM17.3 7.79998C17.3001 7.65954 17.2508 7.52355 17.1609 7.41566C17.071 7.30778 16.9461 7.23485 16.808 7.20958L16.7 7.19998H8.30001L8.19201 7.20958C8.05367 7.23462 7.92852 7.30746 7.8384 7.41536C7.74828 7.52326 7.69891 7.65939 7.69891 7.79998C7.69891 7.94056 7.74828 8.07669 7.8384 8.18459C7.92852 8.2925 8.05367 8.36533 8.19201 8.39038L8.30001 8.39998H16.7L16.808 8.39038C16.9461 8.3651 17.071 8.29217 17.1609 8.18429C17.2508 8.07641 17.3001 7.94041 17.3 7.79998ZM17.3 12C17.3001 11.8595 17.2508 11.7235 17.1609 11.6157C17.071 11.5078 16.9461 11.4349 16.808 11.4096L16.7 11.4H8.30001L8.19201 11.4096C8.05367 11.4346 7.92852 11.5075 7.8384 11.6154C7.74828 11.7233 7.69891 11.8594 7.69891 12C7.69891 12.1406 7.74828 12.2767 7.8384 12.3846C7.92852 12.4925 8.05367 12.5653 8.19201 12.5904L8.30001 12.6H16.7L16.808 12.5904C16.9461 12.5651 17.071 12.4922 17.1609 12.3843C17.2508 12.2764 17.3001 12.1404 17.3 12ZM17.3 16.2C17.3001 16.0595 17.2508 15.9235 17.1609 15.8157C17.071 15.7078 16.9461 15.6349 16.808 15.6096L16.7 15.6H8.30001L8.19201 15.6096C8.05367 15.6346 7.92852 15.7075 7.8384 15.8154C7.74828 15.9233 7.69891 16.0594 7.69891 16.2C7.69891 16.3406 7.74828 16.4767 7.8384 16.5846C7.92852 16.6925 8.05367 16.7653 8.19201 16.7904L8.30001 16.8H16.7L16.808 16.7904C16.9461 16.7651 17.071 16.6922 17.1609 16.5843C17.2508 16.4764 17.3001 16.3404 17.3 16.2Z" fill="white"/>
</svg>
