<svg width="20" height="21" viewBox="0 0 20 21" fill="none" xmlns="http://www.w3.org/2000/svg">
<path fill-rule="evenodd" clip-rule="evenodd" d="M4.16665 17.1666H15.8333C16.0543 17.1666 16.2663 17.2544 16.4226 17.4107C16.5788 17.567 16.6666 17.7789 16.6666 18C16.6666 18.221 16.5788 18.4329 16.4226 18.5892C16.2663 18.7455 16.0543 18.8333 15.8333 18.8333H4.16665C3.94563 18.8333 3.73367 18.7455 3.57739 18.5892C3.42111 18.4329 3.33331 18.221 3.33331 18C3.33331 17.7789 3.42111 17.567 3.57739 17.4107C3.73367 17.2544 3.94563 17.1666 4.16665 17.1666ZM3.33331 13L11.6666 4.66663L14.1666 7.16663L5.83331 15.5H3.33331V13ZM12.5 3.83329L14.1666 2.16663L16.6666 4.66663L14.9991 6.33413L12.5 3.83329Z" fill="white"/>
</svg>
