<svg width="100" height="21" viewBox="0 0 100 21" fill="none" xmlns="http://www.w3.org/2000/svg">
<path d="M17.977 9.64164C17.9219 9.47644 17.7752 9.35604 17.5987 9.33109L12.6386 8.62947L10.4203 4.25434C10.3414 4.09859 10.1784 4 10 4C9.82159 4 9.65865 4.09859 9.57968 4.25434L7.36132 8.62947L2.40134 9.33109C2.22481 9.35604 2.07809 9.47644 2.02296 9.64161C1.96781 9.80682 2.01381 9.98815 2.14159 10.1094L5.73057 13.5149L4.88345 18.3237C4.85327 18.4949 4.92558 18.6679 5.06992 18.77C5.15158 18.8278 5.24829 18.8571 5.34548 18.8571C5.42011 18.8571 5.49498 18.8398 5.56354 18.8047L9.99999 16.5343L14.4363 18.8047C14.5942 18.8855 14.7856 18.8721 14.9299 18.77C15.0743 18.6679 15.1466 18.4949 15.1164 18.3237L14.269 13.5149L17.8584 10.1093C17.9862 9.98815 18.0322 9.80682 17.977 9.64164Z" fill="#FFCA56"/>
<path d="M37.977 9.64164C37.9219 9.47644 37.7752 9.35604 37.5987 9.33109L32.6386 8.62947L30.4203 4.25434C30.3414 4.09859 30.1784 4 30 4C29.8216 4 29.6587 4.09859 29.5797 4.25434L27.3613 8.62947L22.4013 9.33109C22.2248 9.35604 22.0781 9.47644 22.023 9.64161C21.9678 9.80682 22.0138 9.98815 22.1416 10.1094L25.7306 13.5149L24.8835 18.3237C24.8533 18.4949 24.9256 18.6679 25.0699 18.77C25.1516 18.8278 25.2483 18.8571 25.3455 18.8571C25.4201 18.8571 25.495 18.8398 25.5635 18.8047L30 16.5343L34.4363 18.8047C34.5942 18.8855 34.7856 18.8721 34.9299 18.77C35.0743 18.6679 35.1466 18.4949 35.1164 18.3237L34.269 13.5149L37.8584 10.1093C37.9862 9.98815 38.0322 9.80682 37.977 9.64164Z" fill="#FFCA56"/>
<path d="M57.977 9.64164C57.9219 9.47644 57.7752 9.35604 57.5987 9.33109L52.6386 8.62947L50.4203 4.25434C50.3414 4.09859 50.1784 4 50 4C49.8216 4 49.6587 4.09859 49.5797 4.25434L47.3613 8.62947L42.4013 9.33109C42.2248 9.35604 42.0781 9.47644 42.023 9.64161C41.9678 9.80682 42.0138 9.98815 42.1416 10.1094L45.7306 13.5149L44.8835 18.3237C44.8533 18.4949 44.9256 18.6679 45.0699 18.77C45.1516 18.8278 45.2483 18.8571 45.3455 18.8571C45.4201 18.8571 45.495 18.8398 45.5635 18.8047L50 16.5343L54.4363 18.8047C54.5942 18.8855 54.7856 18.8721 54.9299 18.77C55.0743 18.6679 55.1466 18.4949 55.1164 18.3237L54.269 13.5149L57.8584 10.1093C57.9862 9.98815 58.0322 9.80682 57.977 9.64164Z" fill="#FFCA56"/>
<path d="M77.977 9.64164C77.9219 9.47644 77.7752 9.35604 77.5987 9.33109L72.6386 8.62947L70.4203 4.25434C70.3414 4.09859 70.1784 4 70 4C69.8216 4 69.6587 4.09859 69.5797 4.25434L67.3613 8.62947L62.4013 9.33109C62.2248 9.35604 62.0781 9.47644 62.023 9.64161C61.9678 9.80682 62.0138 9.98815 62.1416 10.1094L65.7306 13.5149L64.8835 18.3237C64.8533 18.4949 64.9256 18.6679 65.0699 18.77C65.1516 18.8278 65.2483 18.8571 65.3455 18.8571C65.4201 18.8571 65.495 18.8398 65.5635 18.8047L70 16.5343L74.4363 18.8047C74.5942 18.8855 74.7856 18.8721 74.9299 18.77C75.0743 18.6679 75.1466 18.4949 75.1164 18.3237L74.269 13.5149L77.8584 10.1093C77.9862 9.98815 78.0322 9.80682 77.977 9.64164Z" fill="#FFCA56"/>
<path d="M97.977 9.64164C97.9219 9.47644 97.7752 9.35604 97.5987 9.33109L92.6386 8.62947L90.4203 4.25434C90.3414 4.09859 90.1784 4 90 4C89.8216 4 89.6587 4.09859 89.5797 4.25434L87.3613 8.62947L82.4013 9.33109C82.2248 9.35604 82.0781 9.47644 82.023 9.64161C81.9678 9.80682 82.0138 9.98815 82.1416 10.1094L85.7306 13.5149L84.8835 18.3237C84.8533 18.4949 84.9256 18.6679 85.0699 18.77C85.1516 18.8278 85.2483 18.8571 85.3455 18.8571C85.4201 18.8571 85.495 18.8398 85.5635 18.8047L90 16.5343L94.4363 18.8047C94.5942 18.8855 94.7856 18.8721 94.9299 18.77C95.0743 18.6679 95.1466 18.4949 95.1164 18.3237L94.269 13.5149L97.8584 10.1093C97.9862 9.98815 98.0322 9.80682 97.977 9.64164Z" fill="#FFCA56"/>
</svg>
