<svg width="21" height="19" viewBox="0 0 21 19" fill="none" xmlns="http://www.w3.org/2000/svg">
<path d="M20.4709 7.15784C20.4009 6.94823 20.2148 6.79547 19.9908 6.76382L13.6977 5.87364L10.8833 0.32269C10.7832 0.125085 10.5764 0 10.35 0C10.1237 0 9.91692 0.125085 9.81673 0.32269L7.00218 5.87364L0.70921 6.76382C0.485237 6.79547 0.299088 6.94823 0.229148 7.1578C0.159169 7.3674 0.217532 7.59747 0.379653 7.75127L4.93318 12.0721L3.85839 18.1732C3.82009 18.3905 3.91184 18.6099 4.09497 18.7395C4.19857 18.8127 4.32129 18.85 4.44459 18.85C4.53927 18.85 4.63427 18.828 4.72126 18.7835L10.35 15.9029L15.9785 18.7835C16.1789 18.886 16.4217 18.8689 16.6048 18.7394C16.788 18.6099 16.8798 18.3904 16.8415 18.1732L15.7664 12.0721L20.3204 7.75123C20.4825 7.59747 20.5409 7.3674 20.4709 7.15784Z" fill="#E2E2E2"/>
</svg>
