<svg width="20" height="21" viewBox="0 0 20 21" fill="none" xmlns="http://www.w3.org/2000/svg">
<path d="M5.00002 12.1666H11.6667V10.5H5.00002V12.1666ZM5.00002 9.66663H15V7.99996H5.00002V9.66663ZM5.00002 7.16663H15V5.49996H5.00002V7.16663ZM1.66669 18.8333V3.83329C1.66669 3.37496 1.83002 2.98246 2.15669 2.65579C2.48335 2.32913 2.87558 2.16607 3.33335 2.16663H16.6667C17.125 2.16663 17.5175 2.32996 17.8442 2.65663C18.1709 2.98329 18.3339 3.37552 18.3334 3.83329V13.8333C18.3334 14.2916 18.17 14.6841 17.8434 15.0108C17.5167 15.3375 17.1245 15.5005 16.6667 15.5H5.00002L1.66669 18.8333Z" fill="white"/>
<path d="M5.01 15.5H17.5V3.83329C17.5 3.39127 17.3244 2.96734 17.0118 2.65478C16.6993 2.34222 16.2754 2.16663 15.8333 2.16663H5C3.995 2.16663 2.5 2.83246 2.5 4.66663V16.3333C2.5 18.1675 3.995 18.8333 5 18.8333H17.5V17.1666H5.01C4.625 17.1566 4.16667 17.0041 4.16667 16.3333C4.16667 15.6625 4.625 15.51 5.01 15.5ZM6.66667 5.49996H14.1667V7.16663H6.66667V5.49996Z" fill="white"/>
</svg>
