<svg width="58" height="73" viewBox="0 0 58 73" fill="none" xmlns="http://www.w3.org/2000/svg">
<path d="M0.0239258 72.6004V61.0051H2.34284V70.2815H4.66175V72.6004H0.0239258ZM4.66175 70.2815V61.0051H6.98103V70.2815H4.66175ZM6.98103 72.6004V70.2815H9.29994V61.0051H11.6192V72.6004H6.98103Z" fill="#43526B"/>
<path d="M13.9381 72.6004V61.0051H25.5334V72.6004H23.2141V63.3244H16.257V72.6004H13.9381Z" fill="#43526B"/>
<path d="M20.8952 67.9622H18.5759V70.2814H20.8952V67.9622Z" fill="#009036"/>
<path d="M30.1716 72.6004V70.2815H37.1287V67.9622H27.8523V61.0051H39.4476V63.3244H30.1716V65.6433H39.4476V72.6004H30.1716Z" fill="#43526B"/>
<path d="M41.7666 72.6004V61.0051H53.3619V72.6004H46.4048V70.2815H51.043V63.3244H44.0859V72.6004H41.7666Z" fill="#009036"/>
<path d="M55.681 72.6004V61.0051H57.9999V72.6004H55.681Z" fill="#43526B"/>
<path d="M0 0.247559V57.6537H11.6792V11.8872H46.3604V46.3704H23.3188V57.6537H58V0.247559H0Z" fill="#43526B"/>
</svg>
