<svg width="36" height="36" viewBox="0 0 36 36" fill="none" xmlns="http://www.w3.org/2000/svg">
<path d="M0 0H36V36H0V0Z" fill="black" fill-opacity="0.63"/>
<path d="M25.938 19C25.7154 20.7624 24.9129 22.4007 23.6568 23.6568C22.4007 24.9129 20.7624 25.7154 19 25.938V28H17V25.938C15.2376 25.7154 13.5993 24.9129 12.3432 23.6568C11.0871 22.4007 10.2846 20.7624 10.062 19H8V17H10.062C10.2846 15.2376 11.0871 13.5993 12.3432 12.3432C13.5993 11.0871 15.2376 10.2846 17 10.062V8H19V10.062C20.7624 10.2846 22.4007 11.0871 23.6568 12.3432C24.9129 13.5993 25.7154 15.2376 25.938 17H28V19H25.938ZM18 24C19.5913 24 21.1174 23.3679 22.2426 22.2426C23.3679 21.1174 24 19.5913 24 18C24 16.4087 23.3679 14.8826 22.2426 13.7574C21.1174 12.6321 19.5913 12 18 12C16.4087 12 14.8826 12.6321 13.7574 13.7574C12.6321 14.8826 12 16.4087 12 18C12 19.5913 12.6321 21.1174 13.7574 22.2426C14.8826 23.3679 16.4087 24 18 24ZM18 21C18.7956 21 19.5587 20.6839 20.1213 20.1213C20.6839 19.5587 21 18.7956 21 18C21 17.2044 20.6839 16.4413 20.1213 15.8787C19.5587 15.3161 18.7956 15 18 15C17.2044 15 16.4413 15.3161 15.8787 15.8787C15.3161 16.4413 15 17.2044 15 18C15 18.7956 15.3161 19.5587 15.8787 20.1213C16.4413 20.6839 17.2044 21 18 21Z" fill="white"/>
</svg>
