<svg width="36" height="36" viewBox="0 0 36 36" fill="none" xmlns="http://www.w3.org/2000/svg">
<path d="M36 36L0 36L3.14722e-06 -3.14722e-06L36 0L36 36Z" fill="black" fill-opacity="0.63"/>
<path d="M15.172 22.818L13.757 24.232L18 28.475L22.243 24.232L20.828 22.818L18 25.647L15.172 22.818ZM20.828 13.182L22.243 11.768L18 7.52502L13.757 11.768L15.172 13.182L18 10.354L20.828 13.182Z" fill="white"/>
<path fill-rule="evenodd" clip-rule="evenodd" d="M18 15C18.7956 15 19.5587 15.3161 20.1213 15.8787C20.6839 16.4413 21 17.2044 21 18C21 18.7956 20.6839 19.5587 20.1213 20.1213C19.5587 20.6839 18.7956 21 18 21C17.2044 21 16.4413 20.6839 15.8787 20.1213C15.3161 19.5587 15 18.7956 15 18C15 17.2044 15.3161 16.4413 15.8787 15.8787C16.4413 15.3161 17.2044 15 18 15ZM18 17C18.2652 17 18.5196 17.1054 18.7071 17.2929C18.8946 17.4804 19 17.7348 19 18C19 18.2652 18.8946 18.5196 18.7071 18.7071C18.5196 18.8946 18.2652 19 18 19C17.7348 19 17.4804 18.8946 17.2929 18.7071C17.1054 18.5196 17 18.2652 17 18C17 17.7348 17.1054 17.4804 17.2929 17.2929C17.4804 17.1054 17.7348 17 18 17Z" fill="white"/>
</svg>
