<svg width="36" height="36" viewBox="0 0 36 36" fill="none" xmlns="http://www.w3.org/2000/svg">
<rect width="36" height="36" fill="black" fill-opacity="0.63"/>
<path d="M18 8C15.8921 7.99989 13.8693 8.83176 12.3712 10.3148C10.8732 11.7978 10.0211 13.8122 10 15.92C10 21.4 17.05 27.5 17.35 27.76C17.5311 27.9149 17.7616 28.0001 18 28.0001C18.2384 28.0001 18.4689 27.9149 18.65 27.76C19 27.5 26 21.4 26 15.92C25.9789 13.8122 25.1268 11.7978 23.6288 10.3148C22.1307 8.83176 20.1079 7.99989 18 8ZM18 25.65C16.33 24.06 12 19.65 12 15.92C12 14.3287 12.6321 12.8026 13.7574 11.6774C14.8826 10.5521 16.4087 9.92 18 9.92C19.5913 9.92 21.1174 10.5521 22.2426 11.6774C23.3679 12.8026 24 14.3287 24 15.92C24 19.62 19.67 24.06 18 25.65Z" fill="white"/>
</svg>
