<svg width="20" height="21" viewBox="0 0 20 21" fill="none" xmlns="http://www.w3.org/2000/svg">
<mask id="mask0_1_235" style="mask-type:luminance" maskUnits="userSpaceOnUse" x="1" y="1" width="18" height="19">
<path d="M2.08331 8.41675H17.9166V17.5834C17.9166 17.8044 17.8288 18.0164 17.6726 18.1727C17.5163 18.329 17.3043 18.4167 17.0833 18.4167H2.91665C2.69563 18.4167 2.48367 18.329 2.32739 18.1727C2.17111 18.0164 2.08331 17.8044 2.08331 17.5834V8.41675Z" fill="white"/>
<path fill-rule="evenodd" clip-rule="evenodd" d="M1.25 8.41659C1.25 7.95635 1.6231 7.58325 2.08333 7.58325H17.9167C18.3769 7.58325 18.75 7.95635 18.75 8.41659V17.5833C18.75 18.0253 18.5744 18.4492 18.2618 18.7618C17.9493 19.0743 17.5254 19.2499 17.0833 19.2499H2.91667C2.47464 19.2499 2.05072 19.0743 1.73816 18.7618C1.42559 18.4492 1.25 18.0253 1.25 17.5833V8.41659ZM2.91667 9.24992V17.5833H17.0833V9.24992H2.91667Z" fill="white"/>
<path fill-rule="evenodd" clip-rule="evenodd" d="M1.73816 3.48816C2.05072 3.1756 2.47464 3 2.91667 3H17.0833C17.5254 3 17.9493 3.17559 18.2618 3.48816C18.5744 3.80072 18.75 4.22464 18.75 4.66667V8.41667C18.75 8.8769 18.3769 9.25 17.9167 9.25H2.08333C1.6231 9.25 1.25 8.8769 1.25 8.41667V4.66667C1.25 4.22464 1.42559 3.80072 1.73816 3.48816ZM17.0833 4.66667L2.91667 4.66667L2.91667 7.58333H17.0833V4.66667Z" fill="white"/>
<path fill-rule="evenodd" clip-rule="evenodd" d="M14.7559 10.3273C15.0813 10.6528 15.0813 11.1804 14.7559 11.5058L9.7559 16.5058C9.43046 16.8313 8.90283 16.8313 8.57739 16.5058L6.07739 14.0058C5.75195 13.6804 5.75195 13.1528 6.07739 12.8273C6.40283 12.5019 6.93047 12.5019 7.2559 12.8273L9.16665 14.7381L13.5774 10.3273C13.9028 10.0019 14.4305 10.0019 14.7559 10.3273Z" fill="black"/>
<path fill-rule="evenodd" clip-rule="evenodd" d="M6.66665 1.75C7.12688 1.75 7.49998 2.1231 7.49998 2.58333V5.91667C7.49998 6.3769 7.12688 6.75 6.66665 6.75C6.20641 6.75 5.83331 6.3769 5.83331 5.91667V2.58333C5.83331 2.1231 6.20641 1.75 6.66665 1.75ZM13.3333 1.75C13.7936 1.75 14.1666 2.1231 14.1666 2.58333V5.91667C14.1666 6.3769 13.7936 6.75 13.3333 6.75C12.8731 6.75 12.5 6.3769 12.5 5.91667V2.58333C12.5 2.1231 12.8731 1.75 13.3333 1.75Z" fill="white"/>
</mask>
<g mask="url(#mask0_1_235)">
<path d="M0 0.5H20V20.5H0V0.5Z" fill="white"/>
</g>
</svg>
