<svg width="24" height="20" viewBox="0 0 24 20" fill="none" xmlns="http://www.w3.org/2000/svg">
<g clip-path="url(#clip0_1_177)">
<path d="M23.1 0.400024H15.9C15.4056 0.400024 14.7132 0.686824 14.364 1.03602L5.43723 9.96282C5.2689 10.1319 5.17441 10.3608 5.17441 10.5994C5.17441 10.838 5.2689 11.0669 5.43723 11.236L13.164 18.9628C13.3331 19.1311 13.562 19.2256 13.8006 19.2256C14.0392 19.2256 14.2681 19.1311 14.4372 18.9628L23.364 10.036C23.7144 9.68562 24 8.99442 24 8.50002V1.30002C23.9994 1.06152 23.9044 0.832974 23.7357 0.664328C23.5671 0.495682 23.3385 0.400658 23.1 0.400024ZM18.6 7.60002C18.3636 7.59995 18.1294 7.55329 17.911 7.46273C17.6926 7.37217 17.4941 7.23947 17.327 7.07222C17.1598 6.90496 17.0273 6.70642 16.9369 6.48793C16.8464 6.26944 16.7999 6.03528 16.8 5.79882C16.8001 5.56237 16.8468 5.32824 16.9373 5.10981C17.0279 4.89138 17.1606 4.69293 17.3278 4.52578C17.4951 4.35864 17.6936 4.22607 17.9121 4.13566C18.1306 4.04524 18.3648 3.99875 18.6012 3.99882C19.0788 3.99898 19.5367 4.18884 19.8743 4.52663C20.2118 4.86442 20.4014 5.32248 20.4012 5.80002C20.4011 6.27757 20.2112 6.7355 19.8734 7.07307C19.5356 7.41063 19.0776 7.60018 18.6 7.60002Z" fill="#212F45" fill-opacity="0.44"/>
<path d="M2.40004 10.6L12.6 0.400024H11.1C10.6056 0.400024 9.91324 0.686824 9.56404 1.03602L0.637237 9.96282C0.468916 10.1319 0.37442 10.3608 0.37442 10.5994C0.37442 10.838 0.468916 11.0669 0.637237 11.236L8.36404 18.9628C8.53315 19.1311 8.76204 19.2256 9.00064 19.2256C9.23924 19.2256 9.46813 19.1311 9.63724 18.9628L10.2012 18.3988L2.40124 10.5988L2.40004 10.6Z" fill="#212F45" fill-opacity="0.44"/>
</g>
<defs>
<clipPath id="clip0_1_177">
<rect width="24" height="19.2" fill="white" transform="translate(0 0.400024)"/>
</clipPath>
</defs>
</svg>
