<svg width="24" height="24" viewBox="0 0 24 24" fill="none" xmlns="http://www.w3.org/2000/svg">
<path d="M21.9713 9.83507C21.9024 9.63491 21.7191 9.48904 21.4984 9.45882L15.2983 8.60878L12.5254 3.30814C12.4267 3.11944 12.223 3 12 3C11.777 3 11.5733 3.11944 11.4746 3.30814L8.70165 8.60878L2.50167 9.45882C2.28101 9.48904 2.09761 9.63491 2.02871 9.83503C1.95976 10.0352 2.01726 10.2549 2.17699 10.4017L6.66322 14.5277L5.60432 20.3538C5.56658 20.5612 5.65697 20.7707 5.8374 20.8944C5.93947 20.9644 6.06037 21 6.18185 21C6.27513 21 6.36873 20.979 6.45443 20.9365L12 18.1858L17.5453 20.9365C17.7428 21.0344 17.982 21.0181 18.1624 20.8944C18.3428 20.7707 18.4332 20.5611 18.3955 20.3537L17.3363 14.5277L21.823 10.4017C21.9827 10.2549 22.0403 10.0352 21.9713 9.83507Z" fill="#212F45" fill-opacity="0.44"/>
</svg>
