<svg width="240" height="44" viewBox="0 0 240 44" fill="none" xmlns="http://www.w3.org/2000/svg">
<rect x="90.4609" y="9" width="25.9728" height="4.63801" fill="#43516A"/>
<rect x="100.665" y="24.7693" width="5.56561" height="5.56561" fill="#009036"/>
<rect x="95.0991" y="9" width="25.9728" height="4.638" transform="rotate(90 95.0991 9)" fill="#43516A"/>
<rect x="116.434" y="9" width="25.9728" height="4.638" transform="rotate(90 116.434 9)" fill="#43516A"/>
<rect x="190.002" y="20.8989" width="18.8399" height="4.95787" fill="#43516A"/>
<rect x="191.665" y="9" width="25.9728" height="4.638" transform="rotate(90 191.665 9)" fill="#43516A"/>
<rect x="213" y="9" width="25.9728" height="4.638" transform="rotate(90 213 9)" fill="#43516A"/>
<rect x="155.297" y="9" width="25.9728" height="4.63801" fill="#43516A"/>
<rect x="155.297" y="30.3348" width="25.9728" height="4.63801" fill="#43516A"/>
<rect x="159.935" y="9" width="25.9728" height="4.638" transform="rotate(90 159.935 9)" fill="#43516A"/>
<rect x="138.344" y="24.7693" width="5.56561" height="5.56561" fill="#43516A"/>
<rect x="143.91" y="29.4073" width="5.56561" height="5.56561" fill="#43516A"/>
<rect x="128.141" y="9" width="25.9728" height="5.56561" transform="rotate(90 128.141 9)" fill="#43516A"/>
<rect x="148.548" y="9" width="15.7692" height="5.56561" transform="rotate(90 148.548 9)" fill="#43516A"/>
<rect x="148.548" y="9" width="5.56561" height="25.9728" transform="rotate(90 148.548 9)" fill="#43516A"/>
<rect x="148.559" y="19.7188" width="5.12599" height="25.6299" transform="rotate(90 148.559 19.7188)" fill="#43516A"/>
<rect x="58.7304" y="9" width="25.9728" height="4.63801" fill="#43516A"/>
<rect x="58.7304" y="30.3348" width="25.9728" height="4.63801" fill="#43516A"/>
<rect x="58.7304" y="19.2036" width="15.7692" height="5.56561" fill="#43516A"/>
<rect x="63.3686" y="9" width="25.9728" height="4.638" transform="rotate(90 63.3686 9)" fill="#43516A"/>
<rect x="27.0002" y="9" width="25.9728" height="4.63801" fill="#43516A"/>
<rect x="27.0002" y="19.2036" width="25.9728" height="5.56561" fill="#43516A"/>
<rect x="32.5659" y="29.4073" width="20.4072" height="5.56561" fill="#43516A"/>
<rect x="31.638" y="9" width="15.7692" height="4.638" transform="rotate(90 31.638 9)" fill="#43516A"/>
<rect x="52.9731" y="19.2036" width="15.7692" height="4.638" transform="rotate(90 52.9731 19.2036)" fill="#43516A"/>
</svg>
