<svg width="20" height="21" viewBox="0 0 20 21" fill="none" xmlns="http://www.w3.org/2000/svg">
<path fill-rule="evenodd" clip-rule="evenodd" d="M11.8992 2.29329C11.5909 2.16663 11.1992 2.16663 10.4167 2.16663C9.63419 2.16663 9.24252 2.16663 8.93419 2.29329C8.52373 2.4618 8.197 2.78643 8.02585 3.19579C7.94752 3.38163 7.91752 3.59913 7.90502 3.91496C7.89946 4.1438 7.83563 4.36743 7.71956 4.56473C7.60349 4.76202 7.43901 4.92645 7.24168 5.04246C7.04064 5.15421 6.81464 5.21341 6.58462 5.21458C6.35461 5.21574 6.12802 5.15884 5.92585 5.04913C5.64419 4.90079 5.44002 4.81913 5.23835 4.79246C4.79715 4.73453 4.35091 4.85313 3.99669 5.12246C3.73169 5.32413 3.53585 5.66079 3.14502 6.33329C2.75335 7.00579 2.55835 7.34163 2.51419 7.67079C2.45585 8.10913 2.57585 8.55246 2.84752 8.90329C2.97085 9.06329 3.14502 9.19746 3.41419 9.36579C3.81169 9.61329 4.06669 10.035 4.06669 10.5C4.06669 10.965 3.81169 11.3866 3.41502 11.6333C3.14502 11.8025 2.97085 11.9366 2.84669 12.0966C2.71259 12.2699 2.61416 12.4681 2.55709 12.6796C2.50002 12.8911 2.48544 13.1119 2.51419 13.3291C2.55835 13.6575 2.75335 13.9941 3.14502 14.6666C3.53669 15.3391 3.73169 15.675 3.99669 15.8775C4.35002 16.1466 4.79669 16.265 5.23835 16.2075C5.44002 16.1808 5.64419 16.0991 5.92585 15.9508C6.12812 15.8409 6.35487 15.7839 6.58504 15.7851C6.81522 15.7863 7.04137 15.8456 7.24252 15.9575C7.64752 16.1908 7.88752 16.62 7.90502 17.085C7.91752 17.4016 7.94752 17.6183 8.02585 17.8041C8.19585 18.2125 8.52252 18.5375 8.93419 18.7066C9.24252 18.8333 9.63419 18.8333 10.4167 18.8333C11.1992 18.8333 11.5909 18.8333 11.8992 18.7066C12.3096 18.5381 12.6364 18.2135 12.8075 17.8041C12.8859 17.6183 12.9159 17.4016 12.9284 17.085C12.945 16.62 13.1859 16.19 13.5917 15.9575C13.7927 15.8457 14.0187 15.7865 14.2487 15.7853C14.4788 15.7842 14.7053 15.8411 14.9075 15.9508C15.1892 16.0991 15.3934 16.1808 15.595 16.2075C16.0367 16.2658 16.4834 16.1466 16.8367 15.8775C17.1017 15.6758 17.2975 15.3391 17.6884 14.6666C18.08 13.9941 18.275 13.6583 18.3192 13.3291C18.3478 13.1119 18.3331 12.8911 18.2759 12.6795C18.2187 12.468 18.1201 12.2698 17.9859 12.0966C17.8625 11.9366 17.6884 11.8025 17.4192 11.6341C17.0217 11.3866 16.7667 10.965 16.7667 10.5C16.7667 10.035 17.0217 9.61329 17.4184 9.36663C17.6884 9.19746 17.8625 9.06329 17.9867 8.90329C18.1208 8.73001 18.2192 8.53187 18.2763 8.32032C18.3334 8.10877 18.3479 7.88801 18.3192 7.67079C18.275 7.34246 18.08 7.00579 17.6884 6.33329C17.2967 5.66079 17.1017 5.32496 16.8367 5.12246C16.4825 4.85313 16.0362 4.73453 15.595 4.79246C15.3934 4.81913 15.1892 4.90079 14.9075 5.04913C14.7052 5.15898 14.4785 5.21597 14.2483 5.21481C14.0182 5.21364 13.792 5.15436 13.5909 5.04246C13.3937 4.92634 13.2294 4.76187 13.1135 4.56459C12.9975 4.3673 12.9338 4.14372 12.9284 3.91496C12.9159 3.59829 12.8859 3.38163 12.8075 3.19579C12.7228 2.99307 12.599 2.80903 12.4431 2.65417C12.2873 2.49932 12.1024 2.37669 11.8992 2.29329ZM10.4167 13C11.8084 13 12.9359 11.8808 12.9359 10.5C12.9359 9.11913 11.8075 7.99996 10.4167 7.99996C9.02502 7.99996 7.89752 9.11913 7.89752 10.5C7.89752 11.8808 9.02585 13 10.4167 13Z" fill="white"/>
</svg>
