<svg width="17" height="16" viewBox="0 0 17 16" fill="none" xmlns="http://www.w3.org/2000/svg">
<path d="M10.0001 8V13.2533C10.0268 13.4533 9.96011 13.6667 9.80677 13.8067C9.7451 13.8685 9.67184 13.9175 9.59119 13.951C9.51054 13.9844 9.42409 14.0016 9.33677 14.0016C9.24946 14.0016 9.16301 13.9844 9.08236 13.951C9.00171 13.9175 8.92845 13.8685 8.86677 13.8067L7.52677 12.4667C7.45406 12.3956 7.39878 12.3087 7.36524 12.2127C7.3317 12.1167 7.32082 12.0142 7.33344 11.9133V8H7.31344L3.47344 3.08C3.36518 2.94102 3.31633 2.76484 3.33757 2.58995C3.3588 2.41507 3.4484 2.2557 3.58677 2.14667C3.71344 2.05333 3.85344 2 4.00011 2H13.3334C13.4801 2 13.6201 2.05333 13.7468 2.14667C13.8852 2.2557 13.9747 2.41507 13.996 2.58995C14.0172 2.76484 13.9684 2.94102 13.8601 3.08L10.0201 8H10.0001Z" fill="#ADB6D3"/>
</svg>
