<svg width="388" height="44" viewBox="0 0 388 44" fill="none" xmlns="http://www.w3.org/2000/svg">
<rect x="9" y="9" width="25.7072" height="4.59057" fill="#43516A"/>
<rect x="40.2158" y="9" width="25.7072" height="4.59057" fill="#43516A"/>
<rect x="71.4318" y="9" width="25.7072" height="4.59057" fill="#43516A"/>
<rect x="102.648" y="9" width="25.7072" height="4.59057" fill="#43516A"/>
<rect x="133.864" y="9" width="25.7072" height="4.59057" fill="#43516A"/>
<rect x="102.648" y="30.1167" width="25.7072" height="4.59057" fill="#43516A"/>
<rect x="133.864" y="30.1167" width="25.7072" height="4.59057" fill="#43516A"/>
<rect x="9" y="19.0994" width="25.7072" height="5.50869" fill="#43516A"/>
<rect x="40.2158" y="19.0994" width="25.7072" height="5.50869" fill="#43516A"/>
<rect x="133.864" y="19.0994" width="15.6079" height="5.50869" fill="#43516A"/>
<rect x="81.531" y="24.6079" width="5.50869" height="5.50869" fill="#009036"/>
<rect x="237.61" y="24.6079" width="5.50869" height="5.50869" fill="#009036"/>
<path d="M274.335 22.5H279.844V30.1166H274.335V22.5Z" fill="#43516A"/>
<rect x="279.844" y="29.1985" width="5.50869" height="5.50869" fill="#43516A"/>
<rect x="305.551" y="13.5906" width="5.50869" height="5.50869" fill="#43516A"/>
<rect x="311.06" y="9" width="5.50869" height="5.50869" fill="#43516A"/>
<rect x="311.06" y="29.1985" width="5.50869" height="5.50869" fill="#43516A"/>
<rect x="305.551" y="24.6079" width="5.50869" height="5.50869" fill="#43516A"/>
<rect x="14.5087" y="29.1985" width="20.1985" height="5.50869" fill="#43516A"/>
<rect x="13.5906" y="9" width="15.6079" height="4.59057" transform="rotate(90 13.5906 9)" fill="#43516A"/>
<rect x="34.7072" y="19.0994" width="15.6079" height="4.59057" transform="rotate(90 34.7072 19.0994)" fill="#43516A"/>
<rect x="44.8065" y="9" width="25.7072" height="4.59057" transform="rotate(90 44.8065 9)" fill="#43516A"/>
<rect x="76.0223" y="9" width="25.7072" height="4.59057" transform="rotate(90 76.0223 9)" fill="#43516A"/>
<rect x="97.1389" y="9" width="25.7072" height="4.59057" transform="rotate(90 97.1389 9)" fill="#43516A"/>
<rect x="107.238" y="9" width="25.7072" height="4.59057" transform="rotate(90 107.238 9)" fill="#43516A"/>
<rect x="138.454" y="9" width="25.7072" height="4.59057" transform="rotate(90 138.454 9)" fill="#43516A"/>
<rect x="201.804" y="9" width="25.7072" height="5.50868" transform="rotate(90 201.804 9)" fill="#43516A"/>
<rect x="222.921" y="9" width="25.7072" height="5.50868" transform="rotate(90 222.921 9)" fill="#43516A"/>
<rect x="233.02" y="9" width="25.7072" height="5.50868" transform="rotate(90 233.02 9)" fill="#43516A"/>
<rect x="264.236" y="9" width="25.7072" height="5.50868" transform="rotate(90 264.236 9)" fill="#43516A"/>
<rect x="295.452" y="9" width="25.7072" height="5.50868" transform="rotate(90 295.452 9)" fill="#43516A"/>
<rect x="327.586" y="9" width="25.7072" height="5.50868" transform="rotate(90 327.586 9)" fill="#43516A"/>
<rect x="368.901" y="9" width="25.7072" height="5.50868" transform="rotate(90 368.901 9)" fill="#43516A"/>
<rect x="284.434" y="9" width="15.6079" height="5.50868" transform="rotate(90 284.434 9)" fill="#43516A"/>
<rect x="253.218" y="9" width="25.7072" height="5.50868" transform="rotate(90 253.218 9)" fill="#43516A"/>
<path d="M219.5 9L219.5 14.5087L211.903 14.5087L211.903 9L219.5 9Z" fill="#43516A"/>
<rect x="253.218" y="9" width="5.50869" height="25.7072" transform="rotate(90 253.218 9)" fill="#43516A"/>
<rect x="284.434" y="9" width="5.50869" height="25.7072" transform="rotate(90 284.434 9)" fill="#43516A"/>
<rect x="284.434" y="19.0994" width="5.50869" height="25.7072" transform="rotate(90 284.434 19.0994)" fill="#43516A"/>
<rect x="305.551" y="19.0994" width="5.50869" height="15.6079" transform="rotate(90 305.551 19.0994)" fill="#43516A"/>
<rect x="337.685" y="19.0994" width="5.50869" height="15.6079" transform="rotate(90 337.685 19.0994)" fill="#43516A"/>
<rect x="347.784" y="9" width="5.50869" height="25.7072" transform="rotate(90 347.784 9)" fill="#43516A"/>
<rect x="379" y="9" width="5.50869" height="25.7072" transform="rotate(90 379 9)" fill="#43516A"/>
<rect x="347.784" y="29.1985" width="5.50869" height="25.7072" transform="rotate(90 347.784 29.1985)" fill="#43516A"/>
<path d="M207.313 9L207.313 14.5087L200.5 14.5087L200.5 9L207.313 9Z" fill="#43516A"/>
<rect x="212" y="14" width="5" height="5" transform="rotate(90 212 14)" fill="#43516A"/>
<rect x="65.923" y="9" width="15.6079" height="4.59057" transform="rotate(90 65.923 9)" fill="#43516A"/>
</svg>
