<svg width="20" height="21" viewBox="0 0 20 21" fill="none" xmlns="http://www.w3.org/2000/svg">
<path d="M5.00002 11.3333C3.16669 11.3333 1.66669 12.8333 1.66669 14.6667C1.66669 16.5 3.16669 18 5.00002 18C6.83335 18 8.33335 16.5 8.33335 14.6667C8.33335 12.8333 6.83335 11.3333 5.00002 11.3333ZM10 3C8.16669 3 6.66669 4.5 6.66669 6.33333C6.66669 8.16667 8.16669 9.66667 10 9.66667C11.8334 9.66667 13.3334 8.16667 13.3334 6.33333C13.3334 4.5 11.8334 3 10 3ZM15 11.3333C13.1667 11.3333 11.6667 12.8333 11.6667 14.6667C11.6667 16.5 13.1667 18 15 18C16.8334 18 18.3334 16.5 18.3334 14.6667C18.3334 12.8333 16.8334 11.3333 15 11.3333Z" fill="white"/>
<path d="M5.00002 18C4.08335 18 3.29863 17.6736 2.64585 17.0208C1.99308 16.3681 1.66669 15.5833 1.66669 14.6667C1.66669 13.75 1.99308 12.9653 2.64585 12.3125C3.29863 11.6597 4.08335 11.3333 5.00002 11.3333C5.91669 11.3333 6.70141 11.6597 7.35419 12.3125C8.00696 12.9653 8.33335 13.75 8.33335 14.6667C8.33335 15.5833 8.00696 16.3681 7.35419 17.0208C6.70141 17.6736 5.91669 18 5.00002 18ZM15 18C14.0834 18 13.2986 17.6736 12.6459 17.0208C11.9931 16.3681 11.6667 15.5833 11.6667 14.6667C11.6667 13.75 11.9931 12.9653 12.6459 12.3125C13.2986 11.6597 14.0834 11.3333 15 11.3333C15.9167 11.3333 16.7014 11.6597 17.3542 12.3125C18.007 12.9653 18.3334 13.75 18.3334 14.6667C18.3334 15.5833 18.007 16.3681 17.3542 17.0208C16.7014 17.6736 15.9167 18 15 18ZM10 9.66667C9.08335 9.66667 8.29863 9.34028 7.64585 8.6875C6.99308 8.03472 6.66669 7.25 6.66669 6.33333C6.66669 5.41667 6.99308 4.63194 7.64585 3.97917C8.29863 3.32639 9.08335 3 10 3C10.9167 3 11.7014 3.32639 12.3542 3.97917C13.007 4.63194 13.3334 5.41667 13.3334 6.33333C13.3334 7.25 13.007 8.03472 12.3542 8.6875C11.7014 9.34028 10.9167 9.66667 10 9.66667Z" fill="white"/>
</svg>
