<svg width="21" height="20" viewBox="0 0 21 20" fill="none" xmlns="http://www.w3.org/2000/svg">
<path d="M20.2708 7.73279C20.2009 7.52318 20.0148 7.37042 19.7908 7.33877L13.4977 6.44859L10.6833 0.897641C10.5831 0.700036 10.3764 0.574951 10.15 0.574951C9.92364 0.574951 9.71691 0.700036 9.61672 0.897641L6.80217 6.44859L0.509197 7.33877C0.285224 7.37042 0.0990758 7.52318 0.0291362 7.73275C-0.0408429 7.94236 0.0175193 8.17242 0.179641 8.32622L4.73316 12.647L3.65838 18.7482C3.62008 18.9654 3.71183 19.1849 3.89496 19.3144C3.99856 19.3877 4.12127 19.425 4.24458 19.425C4.33926 19.425 4.43426 19.403 4.52125 19.3585L10.15 16.4778L15.7785 19.3584C15.9789 19.461 16.2217 19.4439 16.4048 19.3144C16.588 19.1849 16.6797 18.9653 16.6415 18.7481L15.5663 12.647L20.1204 8.32618C20.2825 8.17242 20.3409 7.94236 20.2708 7.73279Z" fill="#FFCA56"/>
</svg>
